<?xml version="1.0" standalone="no"?>
<!DOCTYPE svg PUBLIC "-//W3C//DTD SVG 20010904//EN"
 "http://www.w3.org/TR/2001/REC-SVG-20010904/DTD/svg10.dtd">
<svg version="1.0" xmlns="http://www.w3.org/2000/svg"
 width="160.000000pt" height="160.000000pt" viewBox="0 0 160.000000 160.000000"
 preserveAspectRatio="xMidYMid meet">
<metadata>
Created by potrace 1.11, written by Peter Selinger 2001-2013
</metadata>
<g transform="translate(0.000000,160.000000) scale(0.100000,-0.100000)"
fill="#000000" stroke="none">
<path d="M960 1415 c0 -116 -1 -125 -19 -125 -61 0 -168 -62 -213 -124 l-28
-39 -1 -286 0 -286 -118 440 c-65 242 -124 459 -130 483 l-12 42 -219 0 -220
0 0 -725 0 -725 140 0 140 0 1 533 1 532 78 -310 c43 -171 104 -410 136 -532
l57 -223 138 0 c77 0 139 3 139 7 0 6 -76 285 -85 310 -2 7 16 -3 41 -22 40
-31 125 -65 161 -65 10 0 13 -28 13 -127 l0 -126 93 6 c201 14 349 92 446 237
44 67 107 219 94 230 -14 13 -273 91 -283 85 -4 -3 -12 -20 -15 -38 -13 -56
-62 -142 -104 -180 -56 -50 -95 -68 -163 -74 l-58 -6 0 487 0 486 53 0 c116
-1 222 -81 263 -199 15 -42 2 -42 177 1 l129 31 -6 31 c-3 17 -22 64 -42 105
-89 180 -282 290 -511 291 l-73 0 0 -125z"/>
</g>
</svg>
